<?xml version="1.0" encoding="utf-8"?>
<!-- Generator: Adobe Illustrator 27.8.1, SVG Export Plug-In . SVG Version: 6.00 Build 0)  -->
<svg version="1.1" id="GUIDE" xmlns="http://www.w3.org/2000/svg" xmlns:xlink="http://www.w3.org/1999/xlink" x="0px" y="0px"
	 width="820px" height="517.673px" viewBox="0 0 820 517.673" style="enable-background:new 0 0 820 517.673;" xml:space="preserve"
	>
<style type="text/css">
	.st0{fill:#1CD0BB;stroke:#FFFFFF;stroke-width:1.3;stroke-miterlimit:10;}
	.st1{fill:#00A9D7;stroke:#FFFFFF;stroke-width:1.3;stroke-miterlimit:10;}
	.st2{fill:#F5F5F5;stroke:#FFFFFF;stroke-width:1.3;stroke-miterlimit:10;}
	.st3{fill:#DFDFDF;stroke:#FFFFFF;stroke-width:1.3;stroke-miterlimit:10;}
	.st4{fill:#3A8DDE;stroke:#FFFFFF;stroke-width:1.3;stroke-miterlimit:10;}
	.st5{fill:#FFFFFF;}
</style>
<g>
	<g>
		<g>
			<g>
				<path class="st0" d="M402.933,260.439L510.135,40.642c-33.989-16.578-69.385-24.75-107.202-24.75V260.439z"/>
			</g>
		</g>
		<g>
			<g>
				<path class="st1" d="M402.933,260.439l215.921-114.807c-25.363-47.7-60.163-81.307-108.719-104.989L402.933,260.439z"/>
			</g>
		</g>
		<g>
			<g>
				<path class="st2" d="M402.933,260.439l175.912,169.876c75.056-77.723,90.735-189.283,40.01-284.683L402.933,260.439z"/>
			</g>
		</g>
		<g>
			<g>
				<path class="st3" d="M402.933,260.439v244.546c70.231,0,127.125-24.15,175.912-74.67L402.933,260.439z"/>
			</g>
		</g>
		<g>
			<g>
				<path class="st4" d="M402.933,260.439V15.893c-135.059,0-244.546,109.487-244.546,244.546s109.487,244.546,244.546,244.546l0,0
					V260.439z"/>
			</g>
		</g>
	</g>
	<g>
		<g>
		</g>
		<g>
		</g>
		<g>
		</g>
		<g>
		</g>
		<g>
		</g>
	</g>
</g>
<g>
	<path d="M178.006,275.633l1.714-2.007c7.544,6.858,10.77-6.615,1.016-2.797l-1.669-1.105l0.45-7.735h9.45v2.458h-7.06l-0.248,3.699
		C196.172,265.231,188.558,285.162,178.006,275.633z"/>
	<path d="M193.684,269.928c-0.483-10.588,14.173-10.75,13.757-0.09C207.926,280.428,193.251,280.585,193.684,269.928z
		 M204.576,269.928c0.312-7.311-8.298-7.513-8.028-0.09C196.218,277.17,204.86,277.317,204.576,269.928z"/>
	<path d="M211.212,265.89c-0.272-5.236,7.652-5.333,7.441-0.09C218.937,271.014,211.018,271.147,211.212,265.89z M224.359,261.989
		h2.232c-2.912,3.9-8.74,11.848-11.547,15.787h-2.232C215.723,273.873,221.547,265.928,224.359,261.989z M213.219,265.8
		c-0.143,2.994,3.549,3.074,3.428,0.09C216.786,262.913,213.098,262.808,213.219,265.8z M220.751,273.964
		c-0.27-5.232,7.635-5.335,7.442-0.089C228.46,279.091,220.559,279.217,220.751,273.964z M226.187,273.964
		c0.14-2.977-3.549-3.083-3.428-0.09C222.616,276.868,226.308,276.948,226.187,273.964z"/>
</g>
<g>
	<path d="M467.585,442.093l-2.841,0.79l-0.586-2.255c1.284-0.425,4.829-1.689,6.179-1.353v15.899h-2.751V442.093z"/>
	<path d="M474.872,452.67l1.939-1.804c5.101,6.259,11.507-3.333,1.962-2.796l-0.451-1.737l4.262-4.533h-6.833v-2.413h10.442v2.075
		l-4.397,4.511C493.185,448.849,481.732,460.986,474.872,452.67z"/>
	<path d="M490.325,443.288c-0.272-5.236,7.652-5.333,7.441-0.09C498.05,448.412,490.131,448.545,490.325,443.288z M503.472,439.387
		h2.232c-2.912,3.9-8.74,11.848-11.547,15.787h-2.232C494.836,451.271,500.66,443.326,503.472,439.387z M492.331,443.198
		c-0.143,2.994,3.549,3.074,3.428,0.09C495.899,440.311,492.211,440.206,492.331,443.198z M499.864,451.362
		c-0.27-5.232,7.635-5.335,7.442-0.089C507.573,456.489,499.672,456.615,499.864,451.362z M505.299,451.362
		c0.14-2.977-3.549-3.083-3.428-0.09C501.729,454.266,505.421,454.346,505.299,451.362z"/>
</g>
<g>
	<path d="M582.59,280.293c1.895-1.965,8.708-6.267,8.39-8.886c-0.307-3.597-4.563-2.912-6.179-0.091l-1.985-1.556
		c5.845-8.244,19.343,0.202,3.676,10.284h7.51v2.436H582.59V280.293z"/>
	<path d="M597.997,274.632c-0.483-10.587,14.172-10.75,13.757-0.09C612.24,285.133,597.564,285.29,597.997,274.632z
		 M608.891,274.632c0.312-7.312-8.298-7.513-8.029-0.09C600.532,281.874,609.174,282.022,608.891,274.632z"/>
	<path d="M615.524,270.595c-0.272-5.236,7.653-5.333,7.442-0.09C623.251,275.72,615.331,275.851,615.524,270.595z M628.673,266.694
		h2.232c-2.912,3.9-8.74,11.848-11.547,15.787h-2.232C620.036,278.578,625.861,270.633,628.673,266.694z M617.532,270.505
		c-0.143,2.994,3.549,3.074,3.428,0.09C621.1,267.618,617.411,267.513,617.532,270.505z M625.064,278.669
		c-0.27-5.232,7.635-5.335,7.442-0.089C632.773,283.796,624.872,283.922,625.064,278.669z M630.5,278.669
		c0.14-2.978-3.549-3.082-3.429-0.09C626.93,281.573,630.621,281.653,630.5,278.669z"/>
</g>
<g>
	<path d="M526.112,112.683l-2.841,0.79l-0.586-2.255c1.284-0.425,4.829-1.689,6.179-1.353v15.899h-2.751V112.683z"/>
	<path d="M533.715,117.915c-0.483-10.587,14.172-10.75,13.757-0.09C547.957,128.416,533.282,128.572,533.715,117.915z
		 M544.608,117.915c0.312-7.312-8.298-7.513-8.028-0.09C536.25,125.157,544.892,125.305,544.608,117.915z"/>
	<path d="M551.243,113.878c-0.272-5.236,7.652-5.333,7.441-0.09C558.968,119.002,551.049,119.135,551.243,113.878z M564.39,109.977
		h2.232c-2.912,3.9-8.74,11.848-11.547,15.787h-2.232C555.753,121.861,561.578,113.916,564.39,109.977z M553.249,113.788
		c-0.143,2.994,3.549,3.074,3.428,0.09C556.817,110.901,553.129,110.796,553.249,113.788z M560.782,121.952
		c-0.27-5.232,7.635-5.335,7.442-0.089C568.49,127.079,560.59,127.205,560.782,121.952z M566.217,121.952
		c0.14-2.977-3.549-3.083-3.428-0.09C562.647,124.856,566.338,124.936,566.217,121.952z"/>
</g>
<g>
	<path d="M444.733,59.538h-7.938v-2.436h11.096c1.219,1.236-6.662,14.508-7.104,15.787h-3.135L444.733,59.538z"/>
	<path d="M451.48,61.004c-0.272-5.236,7.653-5.333,7.442-0.09C459.206,66.128,451.286,66.261,451.48,61.004z M464.628,57.103h2.232
		c-2.913,3.899-8.741,11.847-11.547,15.787h-2.233C455.991,68.987,461.816,61.041,464.628,57.103z M453.487,60.914
		c-0.143,2.994,3.549,3.074,3.428,0.09C457.054,58.027,453.367,57.922,453.487,60.914z M461.02,69.078
		c-0.27-5.233,7.635-5.334,7.442-0.089C468.728,74.204,460.828,74.332,461.02,69.078z M466.454,69.078
		c0.139-2.977-3.548-3.083-3.428-0.09C462.884,71.982,466.576,72.061,466.454,69.078z"/>
</g>
<circle class="st5" cx="403.503" cy="257.823" r="160.959"/>
</svg>
